# Blender 5.0.1
# www.blender.org
mtllib apple.mtl
o Cube.001
v -0.830822 -0.774467 0.807024
v -0.748613 0.769483 0.763302
v -0.815108 -0.813750 -0.694083
v -0.791351 0.781773 -0.717781
v 0.827417 -0.711614 0.744171
v 0.784206 0.722712 0.752028
v 0.799919 -0.746969 -0.737294
v 0.784206 0.750210 -0.725509
v -0.913316 -0.923742 -0.000490
v -0.940865 -0.006285 0.897308
v -0.944767 0.911211 -0.000587
v -0.940783 -0.006218 -0.855174
v 0.004190 -0.888387 -0.851215
v 0.004235 0.875917 -0.902308
v 0.957051 -0.006236 -0.902282
v 0.945266 -0.904101 -0.000490
v 0.941337 0.871987 -0.000490
v 0.933481 -0.006236 0.897375
v 0.004190 -0.860889 0.893446
v 0.004077 0.832654 0.885513
v 0.004249 0.614242 -0.000566
v 0.004190 -0.617007 -0.000490
v 0.004160 -0.006268 0.999401
v 1.004190 -0.006236 -0.000490
v 0.004242 -0.006264 -1.000524
v -0.995821 -0.006397 -0.000815
vn -0.5354 -0.6463 0.5437
vn -0.4830 0.6878 0.5419
vn -0.5411 -0.6890 -0.4823
vn -0.5319 0.6782 -0.5071
vn 0.5624 -0.6357 0.5288
vn 0.5232 0.6644 0.5336
vn 0.5319 -0.6674 -0.5213
vn 0.5298 0.6839 -0.5016
vn -0.6120 -0.7908 0.0106
vn -0.7152 0.0194 0.6987
vn -0.6311 0.7755 0.0182
vn -0.7244 -0.0128 -0.6893
vn -0.0005 -0.7867 -0.6173
vn 0.0019 0.7674 -0.6411
vn 0.7123 -0.0033 -0.7018
vn 0.6290 -0.7773 0.0119
vn 0.6375 0.7702 0.0181
vn 0.7064 0.0085 0.7077
vn 0.0308 -0.7648 0.6436
vn 0.0189 0.7649 0.6439
vn 0.0222 0.9996 0.0181
vn 0.0248 -0.9994 0.0232
vn 0.0138 0.0107 0.9998
vn 0.9999 0.0108 0.0027
vn -0.0163 -0.0143 -0.9998
vn -1.0000 0.0084 0.0007
vt 0.500000 0.125000
vt 0.625000 0.125000
vt 0.625000 0.250000
vt 0.500000 0.250000
vt 0.500000 0.375000
vt 0.625000 0.375000
vt 0.625000 0.500000
vt 0.500000 0.500000
vt 0.500000 0.625000
vt 0.625000 0.625000
vt 0.625000 0.750000
vt 0.500000 0.750000
vt 0.500000 0.875000
vt 0.625000 0.875000
vt 0.625000 1.000000
vt 0.500000 1.000000
vt 0.250000 0.625000
vt 0.375000 0.625000
vt 0.375000 0.750000
vt 0.250000 0.750000
vt 0.750000 0.625000
vt 0.875000 0.625000
vt 0.875000 0.750000
vt 0.750000 0.750000
vt 0.750000 0.500000
vt 0.875000 0.500000
vt 0.125000 0.625000
vt 0.125000 0.750000
vt 0.125000 0.500000
vt 0.250000 0.500000
vt 0.375000 0.500000
vt 0.375000 0.875000
vt 0.375000 1.000000
vt 0.375000 0.375000
vt 0.375000 0.250000
vt 0.375000 0.125000
vt 0.375000 0.000000
vt 0.500000 0.000000
vt 0.625000 0.000000
s 1
usemtl Material.001
f 26/1/26 11/2/11 4/3/4 12/4/12
f 25/5/25 14/6/14 8/7/8 15/8/15
f 24/9/24 17/10/17 6/11/6 18/12/18
f 23/13/23 20/14/20 2/15/2 10/16/10
f 22/17/22 16/18/16 5/19/5 19/20/19
f 21/21/21 11/22/11 2/23/2 20/24/20
f 17/10/17 21/21/21 20/24/20 6/11/6
f 8/7/8 14/25/14 21/21/21 17/10/17
f 14/25/14 4/26/4 11/22/11 21/21/21
f 9/27/9 22/17/22 19/20/19 1/28/1
f 3/29/3 13/30/13 22/17/22 9/27/9
f 13/30/13 7/31/7 16/18/16 22/17/22
f 19/32/19 23/13/23 10/16/10 1/33/1
f 5/19/5 18/12/18 23/13/23 19/32/19
f 18/12/18 6/11/6 20/14/20 23/13/23
f 16/18/16 24/9/24 18/12/18 5/19/5
f 7/31/7 15/8/15 24/9/24 16/18/16
f 15/8/15 8/7/8 17/10/17 24/9/24
f 13/34/13 25/5/25 15/8/15 7/31/7
f 3/35/3 12/4/12 25/5/25 13/34/13
f 12/4/12 4/3/4 14/6/14 25/5/25
f 9/36/9 26/1/26 12/4/12 3/35/3
f 1/37/1 10/38/10 26/1/26 9/36/9
f 10/38/10 2/39/2 11/2/11 26/1/26
o Cube.002
v -0.011131 0.871082 -0.048304
v -0.490613 1.555408 0.558890
v -0.651215 1.209632 -0.104117
v -0.900676 1.658542 0.797504
v -0.011810 0.868936 -0.047021
v -0.491291 1.553262 0.560173
v -0.651894 1.207486 -0.102833
v -0.901355 1.656396 0.798787
vn 0.8021 -0.0007 -0.5972
vn 0.6895 0.7080 0.1527
vn -0.3575 0.3667 -0.8589
vn -0.2658 0.8951 0.3580
vn 0.5118 -0.8589 0.0178
vn 0.4029 -0.3258 0.8553
vn -0.6956 -0.6423 -0.3220
vn -0.6798 -0.0696 0.7301
vt 0.000000 0.000000
vt 0.000000 1.000000
vt 1.000000 1.000000
vt 1.000000 0.000000
s 1
usemtl Material
f 27/40/27 29/41/29 30/42/30 28/43/28
f 31/40/31 32/43/32 34/42/34 33/41/33
f 30/42/30 29/41/29 33/41/33 34/42/34
f 27/40/27 28/43/28 32/43/32 31/40/31
f 28/43/28 30/42/30 34/42/34 32/43/32
f 29/41/29 27/40/27 31/40/31 33/41/33
o Cube.003
v 0.108240 1.088070 -0.073536
v -0.000531 0.558743 0.015145
v 0.041760 1.094912 -0.117921
v -0.038127 0.558159 -0.027808
v 0.143044 1.058787 -0.132901
v 0.038818 0.561128 -0.019079
v 0.077490 1.067475 -0.169981
v 0.001113 0.560535 -0.062160
v -0.002926 0.840242 0.009545
v -0.039468 0.838713 -0.028358
v -0.006829 0.825430 -0.064316
v 0.037753 0.824995 -0.022093
v -0.014223 0.971131 -0.068777
v 0.028968 0.941613 -0.119625
v 0.088303 0.940289 -0.068303
v 0.044028 0.968888 -0.020459
v -0.006381 0.694843 0.019400
v -0.046785 0.694725 -0.020596
v -0.007304 0.695949 -0.054841
v 0.033228 0.696124 -0.014129
v 0.019461 0.909919 -0.000606
v -0.029954 0.907500 -0.048013
v 0.011263 0.881717 -0.090237
v 0.061258 0.882911 -0.040646
v -0.051043 0.762661 -0.018858
v -0.011938 0.764396 -0.053108
v 0.032876 0.763722 -0.016021
v -0.010309 0.762863 0.021191
v 0.006135 1.032640 -0.087061
v 0.046646 0.995282 -0.150827
v 0.112371 0.989875 -0.101718
v 0.074647 1.023171 -0.044520
vn -0.4331 -0.7011 -0.5664
vn 0.0190 0.5990 -0.8005
vn 0.5261 -0.8445 0.1004
vn 0.7838 0.6175 0.0658
vn -0.9269 -0.1973 0.3192
vn -0.8377 0.5454 -0.0273
vn -0.0099 -0.3516 0.9361
vn -0.0721 0.5431 0.8366
vn 0.0802 -0.1683 -0.9825
vn 0.9895 -0.1414 -0.0285
vn 0.1071 0.2528 0.9616
vn -0.9656 0.2361 -0.1088
vn 0.9512 -0.3041 -0.0522
vn 0.1880 0.4130 0.8911
vn -0.9080 0.4160 -0.0501
vn -0.1127 -0.2934 -0.9493
vn 0.0404 0.0358 -0.9985
vn 0.9978 0.0560 0.0350
vn -0.0317 -0.0233 0.9992
vn -0.9977 -0.0423 -0.0522
vn -0.0092 -0.2298 -0.9732
vn 0.9776 -0.2096 -0.0184
vn 0.1048 0.4027 0.9093
vn -0.9193 0.3792 -0.1052
vn 0.9995 -0.0293 -0.0118
vn 0.0435 0.0620 0.9971
vn -0.9991 0.0247 -0.0357
vn 0.0712 -0.0615 -0.9956
vn 0.8886 -0.4433 -0.1177
vn 0.2411 0.3088 0.9201
vn -0.8836 0.4569 0.1026
vn -0.2482 -0.2957 -0.9225
vt 0.562767 0.000000
vt 0.625000 0.000000
vt 0.625000 0.250000
vt 0.562767 0.250000
vt 0.625000 0.500000
vt 0.562767 0.500000
vt 0.625000 0.750000
vt 0.562767 0.750000
vt 0.625000 1.000000
vt 0.562767 1.000000
vt 0.125000 0.500000
vt 0.375000 0.500000
vt 0.375000 0.750000
vt 0.125000 0.750000
vt 0.875000 0.500000
vt 0.875000 0.750000
vt 0.469151 0.750000
vt 0.500534 0.750000
vt 0.500534 1.000000
vt 0.469151 1.000000
vt 0.469151 0.500000
vt 0.500534 0.500000
vt 0.469151 0.250000
vt 0.500534 0.250000
vt 0.469151 0.000000
vt 0.500534 0.000000
vt 0.406384 0.000000
vt 0.437767 0.000000
vt 0.437767 0.250000
vt 0.406384 0.250000
vt 0.437767 0.500000
vt 0.406384 0.500000
vt 0.437767 0.750000
vt 0.406384 0.750000
vt 0.437767 1.000000
vt 0.406384 1.000000
vt 0.531651 0.750000
vt 0.531651 1.000000
vt 0.531651 0.500000
vt 0.531651 0.250000
vt 0.531651 0.000000
vt 0.375000 1.000000
vt 0.375000 0.250000
vt 0.375000 0.000000
s 1
usemtl Material.002
f 51/44/51 36/45/36 38/46/38 52/47/52
f 52/47/52 38/46/38 42/48/42 53/49/53
f 53/49/53 42/48/42 40/50/40 54/51/54
f 54/51/54 40/50/40 36/52/36 51/53/51
f 37/54/37 41/55/41 39/56/39 35/57/35
f 42/48/42 38/58/38 36/59/36 40/50/40
f 58/60/58 46/61/46 43/62/43 55/63/55
f 57/64/57 45/65/45 46/61/46 58/60/58
f 56/66/56 44/67/44 45/65/45 57/64/57
f 55/68/55 43/69/43 44/67/44 56/66/56
f 66/70/66 50/71/50 47/72/47 63/73/63
f 63/73/63 47/72/47 48/74/48 64/75/64
f 64/75/64 48/74/48 49/76/49 65/77/65
f 65/77/65 49/76/49 50/78/50 66/79/66
f 61/80/61 54/51/54 51/53/51 62/81/62
f 60/82/60 53/49/53 54/51/54 61/80/61
f 59/83/59 52/47/52 53/49/53 60/82/60
f 62/84/62 51/44/51 52/47/52 59/83/59
f 50/71/50 55/68/55 56/66/56 47/72/47
f 47/72/47 56/66/56 57/64/57 48/74/48
f 48/74/48 57/64/57 58/60/58 49/76/49
f 49/76/49 58/60/58 55/63/55 50/78/50
f 43/69/43 62/84/62 59/83/59 44/67/44
f 44/67/44 59/83/59 60/82/60 45/65/45
f 45/65/45 60/82/60 61/80/61 46/61/46
f 46/61/46 61/80/61 62/81/62 43/62/43
f 39/56/39 65/77/65 66/79/66 35/85/35
f 41/55/41 64/75/64 65/77/65 39/56/39
f 37/86/37 63/73/63 64/75/64 41/55/41
f 35/87/35 66/70/66 63/73/63 37/86/37
